<?xml version="1.0" standalone="no"?>
<!DOCTYPE svg PUBLIC "-//W3C//DTD SVG 20010904//EN"
 "http://www.w3.org/TR/2001/REC-SVG-20010904/DTD/svg10.dtd">
<svg version="1.0" xmlns="http://www.w3.org/2000/svg"
 width="457.000000pt" height="457.000000pt" viewBox="0 0 457.000000 457.000000"
 preserveAspectRatio="xMidYMid meet">
<metadata>
Created by potrace 1.14, written by Peter Selinger 2001-2017
</metadata>
<g transform="translate(0.000000,457.000000) scale(0.100000,-0.100000)"
fill="#000000" stroke="none">
<path d="M2142 4489 c-12 -5 -22 -6 -22 -2 0 3 -6 0 -14 -6 -11 -9 -16 -9 -22
0 -5 9 -10 8 -19 -4 -6 -9 -25 -18 -41 -21 -16 -2 -31 -5 -34 -6 -3 -1 -8 -2
-12 -1 -5 0 -8 -3 -8 -8 0 -5 -11 -8 -25 -6 -14 1 -25 -2 -25 -7 0 -5 -4 -6
-10 -3 -5 3 -10 1 -10 -5 0 -6 -4 -8 -10 -5 -5 3 -10 2 -10 -2 0 -5 -10 -10
-22 -10 -13 -1 -24 -7 -26 -12 -2 -5 -10 -7 -18 -4 -8 3 -14 0 -14 -6 0 -6 -6
-8 -14 -5 -7 3 -20 -1 -27 -9 -8 -7 -18 -15 -24 -16 -36 -11 -55 -22 -55 -32
0 -7 -3 -9 -6 -6 -4 3 -16 1 -28 -5 -11 -7 -24 -11 -28 -10 -5 1 -8 -3 -8 -9
0 -5 -4 -7 -10 -4 -5 3 -10 2 -10 -4 0 -9 -14 -16 -45 -23 -5 -1 -22 -15 -37
-30 -15 -15 -32 -28 -38 -28 -6 0 -13 -7 -16 -15 -4 -8 -13 -15 -21 -15 -8 0
-11 -5 -8 -10 3 -6 -2 -13 -11 -17 -23 -9 -54 -40 -46 -47 3 -3 -2 -6 -12 -6
-9 0 -15 -4 -11 -9 3 -6 -4 -15 -15 -21 -11 -6 -20 -17 -20 -25 0 -8 -4 -15
-10 -15 -5 0 -12 -11 -16 -25 -3 -14 -11 -25 -16 -25 -6 0 -8 -7 -4 -15 3 -8
2 -15 -3 -15 -4 0 -12 -16 -18 -35 -8 -25 -8 -33 -1 -28 7 3 8 1 4 -5 -9 -14
-14 -92 -6 -92 7 0 33 -60 29 -64 -2 -2 -53 -16 -114 -31 -434 -108 -815 -358
-1085 -711 l-70 -91 0 -1441 0 -1442 254 0 c269 0 266 0 273 47 2 13 4 33 6
46 2 12 8 30 13 40 9 16 18 13 100 -34 49 -28 113 -62 143 -75 l53 -24 1303 0
1303 0 7 23 c4 12 6 28 6 34 -1 7 6 13 16 13 10 0 14 -4 8 -8 -14 -10 -15 -42
-1 -42 6 0 4 -5 -4 -10 -10 -6 178 -10 539 -10 514 0 552 1 540 17 -15 17 -14
19 4 42 9 12 9 13 0 7 -9 -5 -13 -1 -14 11 0 10 -3 29 -6 43 -3 14 -6 39 -7
57 -1 17 -4 29 -8 27 -4 -2 -9 0 -13 6 -3 5 0 10 7 10 9 0 10 3 2 8 -10 6 -26
56 -25 79 0 5 -7 12 -15 16 -11 7 -12 12 -4 22 8 9 8 15 0 20 -6 3 -8 10 -5
15 3 5 1 11 -5 15 -6 4 -8 11 -5 16 4 5 1 9 -4 9 -6 0 -11 7 -11 15 0 8 -4 15
-10 15 -5 0 -9 3 -8 8 5 13 -25 92 -34 92 -5 0 -7 4 -4 9 7 11 -23 114 -36
122 -5 3 -8 8 -7 10 1 2 -3 20 -11 39 -7 19 -13 38 -14 42 -1 3 -4 10 -8 14
-5 4 -8 16 -8 26 0 10 -4 18 -10 18 -5 0 -7 6 -4 14 3 7 -2 21 -11 30 -9 9
-13 16 -9 16 4 0 -1 10 -12 22 -10 12 -13 18 -6 14 6 -4 12 -3 12 3 0 5 -5 11
-10 13 -6 2 -12 14 -15 28 -3 14 -9 26 -15 28 -6 2 -8 8 -5 13 3 4 -1 22 -10
39 -8 16 -16 33 -16 37 0 5 -7 12 -15 16 -8 5 -12 13 -8 18 3 5 -11 34 -30 63
-20 30 -36 59 -36 65 0 6 -4 11 -9 11 -5 0 -12 7 -15 16 -4 9 -2 13 5 8 6 -3
4 5 -5 18 -9 14 -13 28 -9 31 3 4 1 7 -6 7 -7 0 -9 5 -6 10 3 6 1 10 -5 10 -6
0 -8 5 -5 10 3 6 0 13 -8 16 -9 3 -18 16 -21 29 -3 13 -12 30 -19 37 -6 7 -23
34 -36 60 -13 26 -32 56 -43 68 -10 11 -14 20 -8 20 5 0 1 9 -10 20 -11 11
-20 25 -20 31 0 5 -3 8 -7 6 -10 -5 -43 30 -35 37 3 3 0 6 -7 6 -7 0 -9 5 -6
10 3 5 1 10 -5 10 -7 0 -10 7 -6 15 3 8 1 15 -4 15 -6 0 -10 6 -10 14 0 7 -7
19 -15 26 -8 7 -12 17 -8 24 3 6 3 8 -1 4 -5 -4 -18 4 -31 18 -12 13 -28 24
-35 24 -7 0 -11 3 -7 6 9 10 -16 32 -30 27 -7 -3 -13 0 -13 7 0 6 -4 9 -8 6
-5 -3 -15 4 -22 15 -8 10 -18 19 -23 19 -4 0 -18 10 -31 23 -18 18 -26 43 -36
113 -61 440 -284 853 -634 1172 -25 24 -44 47 -41 52 3 6 -2 7 -12 5 -10 -3
-8 0 5 6 12 7 22 15 22 19 0 4 14 13 30 20 17 7 30 15 30 19 0 4 14 15 31 25
24 14 28 21 18 27 -8 5 -9 9 -3 9 6 0 11 6 12 13 3 25 10 62 12 62 1 0 3 10 4
23 2 12 -1 22 -6 22 -4 0 -8 6 -8 14 0 16 -24 28 -60 30 -22 1 -52 18 -98 56
-7 6 -10 15 -7 21 4 5 0 9 -7 9 -9 0 -9 3 2 10 8 5 10 10 3 10 -13 0 -12 18 1
39 6 9 5 12 -2 7 -6 -3 -13 -2 -17 4 -3 5 -2 10 4 10 6 0 8 6 5 14 -3 7 2 21
11 30 9 9 13 16 10 16 -4 0 0 11 9 25 9 14 13 25 10 25 -4 0 1 10 12 22 10 12
13 18 6 14 -9 -6 -11 2 -7 33 2 22 0 43 -5 46 -6 4 -8 10 -6 14 12 19 15 70 5
77 -8 4 -7 9 2 15 9 6 10 9 2 9 -6 0 -10 11 -8 25 1 14 -1 28 -6 31 -4 2 -5
12 -2 20 11 29 -21 99 -66 144 -25 25 -49 44 -53 42 -4 -1 -8 7 -8 18 0 13 -5
18 -15 14 -10 -4 -15 0 -15 12 0 9 -3 15 -6 11 -4 -3 -13 1 -22 9 -8 9 -23 13
-33 11 -10 -3 -23 1 -30 9 -6 8 -15 12 -19 9 -5 -3 -11 -1 -15 4 -3 6 -12 8
-20 4 -8 -3 -15 -1 -15 5 0 6 -8 9 -17 7 -10 -1 -24 2 -30 8 -9 6 -13 6 -13
-1 0 -6 -13 -7 -36 -2 -20 5 -43 6 -50 3 -8 -3 -14 0 -14 7 0 10 -3 10 -15 0
-12 -10 -15 -10 -15 0 0 10 -3 10 -14 1 -11 -9 -15 -9 -18 1 -4 10 -8 10 -21
-1 -10 -7 -17 -9 -17 -5 0 11 -71 11 -88 0 -7 -4 -12 -3 -12 2 0 11 -20 11
-48 1z"/>
</g>
</svg>
